M48
; DRILL file {KiCad (6.0.0-0)} date 2022年07月23日 土曜日 10:24:22
; FORMAT={-:-/ absolute / metric / decimal}
; #@! TF.CreationDate,2022-07-23T10:24:22+09:00
; #@! TF.GenerationSoftware,Kicad,Pcbnew,(6.0.0-0)
; #@! TF.FileFunction,MixedPlating,1,2
FMAT,2
METRIC
; #@! TA.AperFunction,Plated,PTH,ViaDrill
T1C0.400
; #@! TA.AperFunction,Plated,PTH,ComponentDrill
T2C0.750
; #@! TA.AperFunction,Plated,PTH,ComponentDrill
T3C0.762
; #@! TA.AperFunction,Plated,PTH,ComponentDrill
T4C0.800
; #@! TA.AperFunction,Plated,PTH,ComponentDrill
T5C1.000
; #@! TA.AperFunction,Plated,PTH,ViaDrill
T6C2.500
%
G90
G05
T1
X64.516Y-73.66
X79.248Y-45.72
X79.502Y-35.56
X80.264Y-40.64
X87.376Y-39.37
X87.376Y-45.974
X88.138Y-52.07
X88.138Y-54.61
X93.98Y-44.45
X99.441Y-62.23
X99.568Y-59.69
X101.854Y-50.292
X101.854Y-58.42
X101.854Y-71.12
T2
X83.312Y-49.53
X84.582Y-49.53
X85.852Y-49.53
T3
X66.802Y-79.78
X69.342Y-79.78
T4
X83.312Y-44.45
X89.027Y-49.53
T5
X57.912Y-31.75
X57.912Y-34.29
X57.912Y-36.83
X57.912Y-39.37
X57.912Y-41.91
X57.912Y-44.45
X57.912Y-46.99
X57.912Y-49.53
X57.912Y-52.07
X57.912Y-54.61
X57.912Y-57.15
X57.912Y-59.69
X57.912Y-62.23
X57.912Y-64.77
X57.912Y-67.31
X57.912Y-69.85
X57.912Y-72.39
X57.912Y-74.93
X57.912Y-77.47
X57.912Y-80.01
X64.262Y-79.78
X75.692Y-31.75
X75.692Y-34.29
X75.692Y-36.83
X75.692Y-39.37
X75.692Y-41.91
X75.692Y-44.45
X75.692Y-46.99
X75.692Y-49.53
X75.692Y-52.07
X75.692Y-54.61
X75.692Y-57.15
X75.692Y-59.69
X75.692Y-62.23
X75.692Y-64.77
X75.692Y-67.31
X75.692Y-69.85
X75.692Y-72.39
X75.692Y-74.93
X75.692Y-77.47
X75.692Y-80.01
X83.312Y-34.29
X83.712Y-57.15
X83.712Y-59.69
X83.712Y-62.23
X83.712Y-64.77
X83.712Y-67.31
X83.712Y-69.85
X83.712Y-72.39
X83.712Y-74.93
X83.712Y-77.47
X91.44Y-35.56
X91.44Y-38.1
X91.44Y-40.64
X93.98Y-35.56
X93.98Y-38.1
X93.98Y-40.64
X96.412Y-62.23
X96.412Y-64.77
X96.412Y-67.31
X96.412Y-69.85
X96.412Y-72.39
X96.52Y-35.545
X96.52Y-38.085
X96.52Y-40.625
X99.06Y-35.56
X99.06Y-38.1
X99.06Y-40.64
X99.187Y-49.53
X101.6Y-35.56
X101.6Y-38.1
X101.6Y-40.64
X107.696Y-45.72
X107.696Y-48.26
X107.696Y-50.8
X107.696Y-53.34
X107.696Y-55.88
X107.696Y-58.42
X107.696Y-63.5
X107.696Y-66.04
X107.696Y-68.58
X107.696Y-71.12
X107.696Y-76.2
X107.696Y-78.74
X107.696Y-81.28
T6
X52.0Y-32.0
X52.0Y-88.0
X108.0Y-32.0
X108.0Y-88.0
T0
M30
