%TF.GenerationSoftware,KiCad,Pcbnew,(6.0.0-0)*%
%TF.CreationDate,2022-07-23T10:22:29+09:00*%
%TF.ProjectId,drone_board,64726f6e-655f-4626-9f61-72642e6b6963,rev?*%
%TF.SameCoordinates,Original*%
%TF.FileFunction,Legend,Top*%
%TF.FilePolarity,Positive*%
%FSLAX46Y46*%
G04 Gerber Fmt 4.6, Leading zero omitted, Abs format (unit mm)*
G04 Created by KiCad (PCBNEW (6.0.0-0)) date 2022-07-23 10:22:29*
%MOMM*%
%LPD*%
G01*
G04 APERTURE LIST*
%ADD10C,0.150000*%
%ADD11C,0.300000*%
%ADD12C,0.120000*%
%ADD13C,0.200000*%
G04 APERTURE END LIST*
D10*
X53467095Y-49030000D02*
X53371857Y-48982380D01*
X53229000Y-48982380D01*
X53086142Y-49030000D01*
X52990904Y-49125238D01*
X52943285Y-49220476D01*
X52895666Y-49410952D01*
X52895666Y-49553809D01*
X52943285Y-49744285D01*
X52990904Y-49839523D01*
X53086142Y-49934761D01*
X53229000Y-49982380D01*
X53324238Y-49982380D01*
X53467095Y-49934761D01*
X53514714Y-49887142D01*
X53514714Y-49553809D01*
X53324238Y-49553809D01*
X53943285Y-49982380D02*
X53943285Y-48982380D01*
X54514714Y-49982380D01*
X54514714Y-48982380D01*
X54990904Y-49982380D02*
X54990904Y-48982380D01*
X55229000Y-48982380D01*
X55371857Y-49030000D01*
X55467095Y-49125238D01*
X55514714Y-49220476D01*
X55562333Y-49410952D01*
X55562333Y-49553809D01*
X55514714Y-49744285D01*
X55467095Y-49839523D01*
X55371857Y-49934761D01*
X55229000Y-49982380D01*
X54990904Y-49982380D01*
X53467095Y-74430000D02*
X53371857Y-74382380D01*
X53229000Y-74382380D01*
X53086142Y-74430000D01*
X52990904Y-74525238D01*
X52943285Y-74620476D01*
X52895666Y-74810952D01*
X52895666Y-74953809D01*
X52943285Y-75144285D01*
X52990904Y-75239523D01*
X53086142Y-75334761D01*
X53229000Y-75382380D01*
X53324238Y-75382380D01*
X53467095Y-75334761D01*
X53514714Y-75287142D01*
X53514714Y-74953809D01*
X53324238Y-74953809D01*
X53943285Y-75382380D02*
X53943285Y-74382380D01*
X54514714Y-75382380D01*
X54514714Y-74382380D01*
X54990904Y-75382380D02*
X54990904Y-74382380D01*
X55229000Y-74382380D01*
X55371857Y-74430000D01*
X55467095Y-74525238D01*
X55514714Y-74620476D01*
X55562333Y-74810952D01*
X55562333Y-74953809D01*
X55514714Y-75144285D01*
X55467095Y-75239523D01*
X55371857Y-75334761D01*
X55229000Y-75382380D01*
X54990904Y-75382380D01*
X82376285Y-88590380D02*
X82376285Y-87590380D01*
X82614380Y-87590380D01*
X82757238Y-87638000D01*
X82852476Y-87733238D01*
X82900095Y-87828476D01*
X82947714Y-88018952D01*
X82947714Y-88161809D01*
X82900095Y-88352285D01*
X82852476Y-88447523D01*
X82757238Y-88542761D01*
X82614380Y-88590380D01*
X82376285Y-88590380D01*
X83757238Y-88542761D02*
X83662000Y-88590380D01*
X83471523Y-88590380D01*
X83376285Y-88542761D01*
X83328666Y-88447523D01*
X83328666Y-88066571D01*
X83376285Y-87971333D01*
X83471523Y-87923714D01*
X83662000Y-87923714D01*
X83757238Y-87971333D01*
X83804857Y-88066571D01*
X83804857Y-88161809D01*
X83328666Y-88257047D01*
X84185809Y-88542761D02*
X84281047Y-88590380D01*
X84471523Y-88590380D01*
X84566761Y-88542761D01*
X84614380Y-88447523D01*
X84614380Y-88399904D01*
X84566761Y-88304666D01*
X84471523Y-88257047D01*
X84328666Y-88257047D01*
X84233428Y-88209428D01*
X84185809Y-88114190D01*
X84185809Y-88066571D01*
X84233428Y-87971333D01*
X84328666Y-87923714D01*
X84471523Y-87923714D01*
X84566761Y-87971333D01*
X85042952Y-88590380D02*
X85042952Y-87923714D01*
X85042952Y-87590380D02*
X84995333Y-87638000D01*
X85042952Y-87685619D01*
X85090571Y-87638000D01*
X85042952Y-87590380D01*
X85042952Y-87685619D01*
X85947714Y-87923714D02*
X85947714Y-88733238D01*
X85900095Y-88828476D01*
X85852476Y-88876095D01*
X85757238Y-88923714D01*
X85614380Y-88923714D01*
X85519142Y-88876095D01*
X85947714Y-88542761D02*
X85852476Y-88590380D01*
X85662000Y-88590380D01*
X85566761Y-88542761D01*
X85519142Y-88495142D01*
X85471523Y-88399904D01*
X85471523Y-88114190D01*
X85519142Y-88018952D01*
X85566761Y-87971333D01*
X85662000Y-87923714D01*
X85852476Y-87923714D01*
X85947714Y-87971333D01*
X86423904Y-87923714D02*
X86423904Y-88590380D01*
X86423904Y-88018952D02*
X86471523Y-87971333D01*
X86566761Y-87923714D01*
X86709619Y-87923714D01*
X86804857Y-87971333D01*
X86852476Y-88066571D01*
X86852476Y-88590380D01*
X87709619Y-88542761D02*
X87614380Y-88590380D01*
X87423904Y-88590380D01*
X87328666Y-88542761D01*
X87281047Y-88447523D01*
X87281047Y-88066571D01*
X87328666Y-87971333D01*
X87423904Y-87923714D01*
X87614380Y-87923714D01*
X87709619Y-87971333D01*
X87757238Y-88066571D01*
X87757238Y-88161809D01*
X87281047Y-88257047D01*
X88614380Y-88590380D02*
X88614380Y-87590380D01*
X88614380Y-88542761D02*
X88519142Y-88590380D01*
X88328666Y-88590380D01*
X88233428Y-88542761D01*
X88185809Y-88495142D01*
X88138190Y-88399904D01*
X88138190Y-88114190D01*
X88185809Y-88018952D01*
X88233428Y-87971333D01*
X88328666Y-87923714D01*
X88519142Y-87923714D01*
X88614380Y-87971333D01*
X89852476Y-88590380D02*
X89852476Y-87590380D01*
X89852476Y-87971333D02*
X89947714Y-87923714D01*
X90138190Y-87923714D01*
X90233428Y-87971333D01*
X90281047Y-88018952D01*
X90328666Y-88114190D01*
X90328666Y-88399904D01*
X90281047Y-88495142D01*
X90233428Y-88542761D01*
X90138190Y-88590380D01*
X89947714Y-88590380D01*
X89852476Y-88542761D01*
X90662000Y-87923714D02*
X90900095Y-88590380D01*
X91138190Y-87923714D02*
X90900095Y-88590380D01*
X90804857Y-88828476D01*
X90757238Y-88876095D01*
X90662000Y-88923714D01*
X92281047Y-88590380D02*
X92281047Y-87590380D01*
X92852476Y-88590380D02*
X92423904Y-88018952D01*
X92852476Y-87590380D02*
X92281047Y-88161809D01*
X93423904Y-88590380D02*
X93328666Y-88542761D01*
X93281047Y-88495142D01*
X93233428Y-88399904D01*
X93233428Y-88114190D01*
X93281047Y-88018952D01*
X93328666Y-87971333D01*
X93423904Y-87923714D01*
X93566761Y-87923714D01*
X93662000Y-87971333D01*
X93709619Y-88018952D01*
X93757238Y-88114190D01*
X93757238Y-88399904D01*
X93709619Y-88495142D01*
X93662000Y-88542761D01*
X93566761Y-88590380D01*
X93423904Y-88590380D01*
X94185809Y-88590380D02*
X94185809Y-87590380D01*
X94281047Y-88209428D02*
X94566761Y-88590380D01*
X94566761Y-87923714D02*
X94185809Y-88304666D01*
X95138190Y-88590380D02*
X95042952Y-88542761D01*
X94995333Y-88495142D01*
X94947714Y-88399904D01*
X94947714Y-88114190D01*
X94995333Y-88018952D01*
X95042952Y-87971333D01*
X95138190Y-87923714D01*
X95281047Y-87923714D01*
X95376285Y-87971333D01*
X95423904Y-88018952D01*
X95471523Y-88114190D01*
X95471523Y-88399904D01*
X95423904Y-88495142D01*
X95376285Y-88542761D01*
X95281047Y-88590380D01*
X95138190Y-88590380D01*
X95900095Y-88590380D02*
X95900095Y-87923714D01*
X95900095Y-88114190D02*
X95947714Y-88018952D01*
X95995333Y-87971333D01*
X96090571Y-87923714D01*
X96185809Y-87923714D01*
X96662000Y-88590380D02*
X96566761Y-88542761D01*
X96519142Y-88495142D01*
X96471523Y-88399904D01*
X96471523Y-88114190D01*
X96519142Y-88018952D01*
X96566761Y-87971333D01*
X96662000Y-87923714D01*
X96804857Y-87923714D01*
X96900095Y-87971333D01*
X96947714Y-88018952D01*
X96995333Y-88114190D01*
X96995333Y-88399904D01*
X96947714Y-88495142D01*
X96900095Y-88542761D01*
X96804857Y-88590380D01*
X96662000Y-88590380D01*
X88201714Y-85653619D02*
X88249333Y-85606000D01*
X88344571Y-85558380D01*
X88582666Y-85558380D01*
X88677904Y-85606000D01*
X88725523Y-85653619D01*
X88773142Y-85748857D01*
X88773142Y-85844095D01*
X88725523Y-85986952D01*
X88154095Y-86558380D01*
X88773142Y-86558380D01*
X89392190Y-85558380D02*
X89487428Y-85558380D01*
X89582666Y-85606000D01*
X89630285Y-85653619D01*
X89677904Y-85748857D01*
X89725523Y-85939333D01*
X89725523Y-86177428D01*
X89677904Y-86367904D01*
X89630285Y-86463142D01*
X89582666Y-86510761D01*
X89487428Y-86558380D01*
X89392190Y-86558380D01*
X89296952Y-86510761D01*
X89249333Y-86463142D01*
X89201714Y-86367904D01*
X89154095Y-86177428D01*
X89154095Y-85939333D01*
X89201714Y-85748857D01*
X89249333Y-85653619D01*
X89296952Y-85606000D01*
X89392190Y-85558380D01*
X90106476Y-85653619D02*
X90154095Y-85606000D01*
X90249333Y-85558380D01*
X90487428Y-85558380D01*
X90582666Y-85606000D01*
X90630285Y-85653619D01*
X90677904Y-85748857D01*
X90677904Y-85844095D01*
X90630285Y-85986952D01*
X90058857Y-86558380D01*
X90677904Y-86558380D01*
X91058857Y-85653619D02*
X91106476Y-85606000D01*
X91201714Y-85558380D01*
X91439809Y-85558380D01*
X91535047Y-85606000D01*
X91582666Y-85653619D01*
X91630285Y-85748857D01*
X91630285Y-85844095D01*
X91582666Y-85986952D01*
X91011238Y-86558380D01*
X91630285Y-86558380D01*
D11*
X76276999Y-84244571D02*
X76276999Y-82744571D01*
X76776999Y-83244571D02*
X77348428Y-83244571D01*
X76991285Y-82744571D02*
X76991285Y-84030285D01*
X77062714Y-84173142D01*
X77205571Y-84244571D01*
X77348428Y-84244571D01*
X78062714Y-84244571D02*
X77919857Y-84173142D01*
X77848428Y-84101714D01*
X77776999Y-83958857D01*
X77776999Y-83530285D01*
X77848428Y-83387428D01*
X77919857Y-83316000D01*
X78062714Y-83244571D01*
X78276999Y-83244571D01*
X78419857Y-83316000D01*
X78491285Y-83387428D01*
X78562714Y-83530285D01*
X78562714Y-83958857D01*
X78491285Y-84101714D01*
X78419857Y-84173142D01*
X78276999Y-84244571D01*
X78062714Y-84244571D01*
X79419857Y-84244571D02*
X79276999Y-84173142D01*
X79205571Y-84030285D01*
X79205571Y-82744571D01*
X80634142Y-84244571D02*
X80634142Y-83458857D01*
X80562714Y-83316000D01*
X80419857Y-83244571D01*
X80134142Y-83244571D01*
X79991285Y-83316000D01*
X80634142Y-84173142D02*
X80491285Y-84244571D01*
X80134142Y-84244571D01*
X79991285Y-84173142D01*
X79919857Y-84030285D01*
X79919857Y-83887428D01*
X79991285Y-83744571D01*
X80134142Y-83673142D01*
X80491285Y-83673142D01*
X80634142Y-83601714D01*
X81348428Y-84244571D02*
X81348428Y-82744571D01*
X81348428Y-83316000D02*
X81491285Y-83244571D01*
X81776999Y-83244571D01*
X81919857Y-83316000D01*
X81991285Y-83387428D01*
X82062714Y-83530285D01*
X82062714Y-83958857D01*
X81991285Y-84101714D01*
X81919857Y-84173142D01*
X81776999Y-84244571D01*
X81491285Y-84244571D01*
X81348428Y-84173142D01*
X84348428Y-83458857D02*
X83848428Y-83458857D01*
X83848428Y-84244571D02*
X83848428Y-82744571D01*
X84562714Y-82744571D01*
X85348428Y-84244571D02*
X85205571Y-84173142D01*
X85134142Y-84030285D01*
X85134142Y-82744571D01*
X85919857Y-84244571D02*
X85919857Y-83244571D01*
X85919857Y-82744571D02*
X85848428Y-82816000D01*
X85919857Y-82887428D01*
X85991285Y-82816000D01*
X85919857Y-82744571D01*
X85919857Y-82887428D01*
X87276999Y-83244571D02*
X87276999Y-84458857D01*
X87205571Y-84601714D01*
X87134142Y-84673142D01*
X86991285Y-84744571D01*
X86776999Y-84744571D01*
X86634142Y-84673142D01*
X87276999Y-84173142D02*
X87134142Y-84244571D01*
X86848428Y-84244571D01*
X86705571Y-84173142D01*
X86634142Y-84101714D01*
X86562714Y-83958857D01*
X86562714Y-83530285D01*
X86634142Y-83387428D01*
X86705571Y-83316000D01*
X86848428Y-83244571D01*
X87134142Y-83244571D01*
X87276999Y-83316000D01*
X87991285Y-84244571D02*
X87991285Y-82744571D01*
X88634142Y-84244571D02*
X88634142Y-83458857D01*
X88562714Y-83316000D01*
X88419857Y-83244571D01*
X88205571Y-83244571D01*
X88062714Y-83316000D01*
X87991285Y-83387428D01*
X89134142Y-83244571D02*
X89705571Y-83244571D01*
X89348428Y-82744571D02*
X89348428Y-84030285D01*
X89419857Y-84173142D01*
X89562714Y-84244571D01*
X89705571Y-84244571D01*
X92205571Y-84101714D02*
X92134142Y-84173142D01*
X91919857Y-84244571D01*
X91776999Y-84244571D01*
X91562714Y-84173142D01*
X91419857Y-84030285D01*
X91348428Y-83887428D01*
X91276999Y-83601714D01*
X91276999Y-83387428D01*
X91348428Y-83101714D01*
X91419857Y-82958857D01*
X91562714Y-82816000D01*
X91776999Y-82744571D01*
X91919857Y-82744571D01*
X92134142Y-82816000D01*
X92205571Y-82887428D01*
X93062714Y-84244571D02*
X92919857Y-84173142D01*
X92848428Y-84101714D01*
X92776999Y-83958857D01*
X92776999Y-83530285D01*
X92848428Y-83387428D01*
X92919857Y-83316000D01*
X93062714Y-83244571D01*
X93276999Y-83244571D01*
X93419857Y-83316000D01*
X93491285Y-83387428D01*
X93562714Y-83530285D01*
X93562714Y-83958857D01*
X93491285Y-84101714D01*
X93419857Y-84173142D01*
X93276999Y-84244571D01*
X93062714Y-84244571D01*
X94205571Y-83244571D02*
X94205571Y-84244571D01*
X94205571Y-83387428D02*
X94276999Y-83316000D01*
X94419857Y-83244571D01*
X94634142Y-83244571D01*
X94776999Y-83316000D01*
X94848428Y-83458857D01*
X94848428Y-84244571D01*
X95348428Y-83244571D02*
X95919857Y-83244571D01*
X95562714Y-82744571D02*
X95562714Y-84030285D01*
X95634142Y-84173142D01*
X95776999Y-84244571D01*
X95919857Y-84244571D01*
X96419857Y-84244571D02*
X96419857Y-83244571D01*
X96419857Y-83530285D02*
X96491285Y-83387428D01*
X96562714Y-83316000D01*
X96705571Y-83244571D01*
X96848428Y-83244571D01*
X97562714Y-84244571D02*
X97419857Y-84173142D01*
X97348428Y-84101714D01*
X97277000Y-83958857D01*
X97277000Y-83530285D01*
X97348428Y-83387428D01*
X97419857Y-83316000D01*
X97562714Y-83244571D01*
X97777000Y-83244571D01*
X97919857Y-83316000D01*
X97991285Y-83387428D01*
X98062714Y-83530285D01*
X98062714Y-83958857D01*
X97991285Y-84101714D01*
X97919857Y-84173142D01*
X97777000Y-84244571D01*
X97562714Y-84244571D01*
X98919857Y-84244571D02*
X98777000Y-84173142D01*
X98705571Y-84030285D01*
X98705571Y-82744571D01*
X99705571Y-84244571D02*
X99562714Y-84173142D01*
X99491285Y-84030285D01*
X99491285Y-82744571D01*
X100848428Y-84173142D02*
X100705571Y-84244571D01*
X100419857Y-84244571D01*
X100277000Y-84173142D01*
X100205571Y-84030285D01*
X100205571Y-83458857D01*
X100277000Y-83316000D01*
X100419857Y-83244571D01*
X100705571Y-83244571D01*
X100848428Y-83316000D01*
X100919857Y-83458857D01*
X100919857Y-83601714D01*
X100205571Y-83744571D01*
X101562714Y-84244571D02*
X101562714Y-83244571D01*
X101562714Y-83530285D02*
X101634142Y-83387428D01*
X101705571Y-83316000D01*
X101848428Y-83244571D01*
X101991285Y-83244571D01*
D10*
X104013095Y-35187000D02*
X103917857Y-35139380D01*
X103775000Y-35139380D01*
X103632142Y-35187000D01*
X103536904Y-35282238D01*
X103489285Y-35377476D01*
X103441666Y-35567952D01*
X103441666Y-35710809D01*
X103489285Y-35901285D01*
X103536904Y-35996523D01*
X103632142Y-36091761D01*
X103775000Y-36139380D01*
X103870238Y-36139380D01*
X104013095Y-36091761D01*
X104060714Y-36044142D01*
X104060714Y-35710809D01*
X103870238Y-35710809D01*
X104489285Y-36139380D02*
X104489285Y-35139380D01*
X105060714Y-36139380D01*
X105060714Y-35139380D01*
X105536904Y-36139380D02*
X105536904Y-35139380D01*
X105775000Y-35139380D01*
X105917857Y-35187000D01*
X106013095Y-35282238D01*
X106060714Y-35377476D01*
X106108333Y-35567952D01*
X106108333Y-35710809D01*
X106060714Y-35901285D01*
X106013095Y-35996523D01*
X105917857Y-36091761D01*
X105775000Y-36139380D01*
X105536904Y-36139380D01*
X79629095Y-61730000D02*
X79533857Y-61682380D01*
X79391000Y-61682380D01*
X79248142Y-61730000D01*
X79152904Y-61825238D01*
X79105285Y-61920476D01*
X79057666Y-62110952D01*
X79057666Y-62253809D01*
X79105285Y-62444285D01*
X79152904Y-62539523D01*
X79248142Y-62634761D01*
X79391000Y-62682380D01*
X79486238Y-62682380D01*
X79629095Y-62634761D01*
X79676714Y-62587142D01*
X79676714Y-62253809D01*
X79486238Y-62253809D01*
X80105285Y-62682380D02*
X80105285Y-61682380D01*
X80676714Y-62682380D01*
X80676714Y-61682380D01*
X81152904Y-62682380D02*
X81152904Y-61682380D01*
X81391000Y-61682380D01*
X81533857Y-61730000D01*
X81629095Y-61825238D01*
X81676714Y-61920476D01*
X81724333Y-62110952D01*
X81724333Y-62253809D01*
X81676714Y-62444285D01*
X81629095Y-62539523D01*
X81533857Y-62634761D01*
X81391000Y-62682380D01*
X81152904Y-62682380D01*
X103759095Y-75827000D02*
X103663857Y-75779380D01*
X103521000Y-75779380D01*
X103378142Y-75827000D01*
X103282904Y-75922238D01*
X103235285Y-76017476D01*
X103187666Y-76207952D01*
X103187666Y-76350809D01*
X103235285Y-76541285D01*
X103282904Y-76636523D01*
X103378142Y-76731761D01*
X103521000Y-76779380D01*
X103616238Y-76779380D01*
X103759095Y-76731761D01*
X103806714Y-76684142D01*
X103806714Y-76350809D01*
X103616238Y-76350809D01*
X104235285Y-76779380D02*
X104235285Y-75779380D01*
X104806714Y-76779380D01*
X104806714Y-75779380D01*
X105282904Y-76779380D02*
X105282904Y-75779380D01*
X105521000Y-75779380D01*
X105663857Y-75827000D01*
X105759095Y-75922238D01*
X105806714Y-76017476D01*
X105854333Y-76207952D01*
X105854333Y-76350809D01*
X105806714Y-76541285D01*
X105759095Y-76636523D01*
X105663857Y-76731761D01*
X105521000Y-76779380D01*
X105282904Y-76779380D01*
X103759095Y-45347000D02*
X103663857Y-45299380D01*
X103521000Y-45299380D01*
X103378142Y-45347000D01*
X103282904Y-45442238D01*
X103235285Y-45537476D01*
X103187666Y-45727952D01*
X103187666Y-45870809D01*
X103235285Y-46061285D01*
X103282904Y-46156523D01*
X103378142Y-46251761D01*
X103521000Y-46299380D01*
X103616238Y-46299380D01*
X103759095Y-46251761D01*
X103806714Y-46204142D01*
X103806714Y-45870809D01*
X103616238Y-45870809D01*
X104235285Y-46299380D02*
X104235285Y-45299380D01*
X104806714Y-46299380D01*
X104806714Y-45299380D01*
X105282904Y-46299380D02*
X105282904Y-45299380D01*
X105521000Y-45299380D01*
X105663857Y-45347000D01*
X105759095Y-45442238D01*
X105806714Y-45537476D01*
X105854333Y-45727952D01*
X105854333Y-45870809D01*
X105806714Y-46061285D01*
X105759095Y-46156523D01*
X105663857Y-46251761D01*
X105521000Y-46299380D01*
X105282904Y-46299380D01*
X53467095Y-36457000D02*
X53371857Y-36409380D01*
X53229000Y-36409380D01*
X53086142Y-36457000D01*
X52990904Y-36552238D01*
X52943285Y-36647476D01*
X52895666Y-36837952D01*
X52895666Y-36980809D01*
X52943285Y-37171285D01*
X52990904Y-37266523D01*
X53086142Y-37361761D01*
X53229000Y-37409380D01*
X53324238Y-37409380D01*
X53467095Y-37361761D01*
X53514714Y-37314142D01*
X53514714Y-36980809D01*
X53324238Y-36980809D01*
X53943285Y-37409380D02*
X53943285Y-36409380D01*
X54514714Y-37409380D01*
X54514714Y-36409380D01*
X54990904Y-37409380D02*
X54990904Y-36409380D01*
X55229000Y-36409380D01*
X55371857Y-36457000D01*
X55467095Y-36552238D01*
X55514714Y-36647476D01*
X55562333Y-36837952D01*
X55562333Y-36980809D01*
X55514714Y-37171285D01*
X55467095Y-37266523D01*
X55371857Y-37361761D01*
X55229000Y-37409380D01*
X54990904Y-37409380D01*
X78867095Y-49030000D02*
X78771857Y-48982380D01*
X78629000Y-48982380D01*
X78486142Y-49030000D01*
X78390904Y-49125238D01*
X78343285Y-49220476D01*
X78295666Y-49410952D01*
X78295666Y-49553809D01*
X78343285Y-49744285D01*
X78390904Y-49839523D01*
X78486142Y-49934761D01*
X78629000Y-49982380D01*
X78724238Y-49982380D01*
X78867095Y-49934761D01*
X78914714Y-49887142D01*
X78914714Y-49553809D01*
X78724238Y-49553809D01*
X79343285Y-49982380D02*
X79343285Y-48982380D01*
X79914714Y-49982380D01*
X79914714Y-48982380D01*
X80390904Y-49982380D02*
X80390904Y-48982380D01*
X80629000Y-48982380D01*
X80771857Y-49030000D01*
X80867095Y-49125238D01*
X80914714Y-49220476D01*
X80962333Y-49410952D01*
X80962333Y-49553809D01*
X80914714Y-49744285D01*
X80867095Y-49839523D01*
X80771857Y-49934761D01*
X80629000Y-49982380D01*
X80390904Y-49982380D01*
X78613095Y-36457000D02*
X78517857Y-36409380D01*
X78375000Y-36409380D01*
X78232142Y-36457000D01*
X78136904Y-36552238D01*
X78089285Y-36647476D01*
X78041666Y-36837952D01*
X78041666Y-36980809D01*
X78089285Y-37171285D01*
X78136904Y-37266523D01*
X78232142Y-37361761D01*
X78375000Y-37409380D01*
X78470238Y-37409380D01*
X78613095Y-37361761D01*
X78660714Y-37314142D01*
X78660714Y-36980809D01*
X78470238Y-36980809D01*
X79089285Y-37409380D02*
X79089285Y-36409380D01*
X79660714Y-37409380D01*
X79660714Y-36409380D01*
X80136904Y-37409380D02*
X80136904Y-36409380D01*
X80375000Y-36409380D01*
X80517857Y-36457000D01*
X80613095Y-36552238D01*
X80660714Y-36647476D01*
X80708333Y-36837952D01*
X80708333Y-36980809D01*
X80660714Y-37171285D01*
X80613095Y-37266523D01*
X80517857Y-37361761D01*
X80375000Y-37409380D01*
X80136904Y-37409380D01*
X78740095Y-74557000D02*
X78644857Y-74509380D01*
X78502000Y-74509380D01*
X78359142Y-74557000D01*
X78263904Y-74652238D01*
X78216285Y-74747476D01*
X78168666Y-74937952D01*
X78168666Y-75080809D01*
X78216285Y-75271285D01*
X78263904Y-75366523D01*
X78359142Y-75461761D01*
X78502000Y-75509380D01*
X78597238Y-75509380D01*
X78740095Y-75461761D01*
X78787714Y-75414142D01*
X78787714Y-75080809D01*
X78597238Y-75080809D01*
X79216285Y-75509380D02*
X79216285Y-74509380D01*
X79787714Y-75509380D01*
X79787714Y-74509380D01*
X80263904Y-75509380D02*
X80263904Y-74509380D01*
X80502000Y-74509380D01*
X80644857Y-74557000D01*
X80740095Y-74652238D01*
X80787714Y-74747476D01*
X80835333Y-74937952D01*
X80835333Y-75080809D01*
X80787714Y-75271285D01*
X80740095Y-75366523D01*
X80644857Y-75461761D01*
X80502000Y-75509380D01*
X80263904Y-75509380D01*
X53467095Y-61730000D02*
X53371857Y-61682380D01*
X53229000Y-61682380D01*
X53086142Y-61730000D01*
X52990904Y-61825238D01*
X52943285Y-61920476D01*
X52895666Y-62110952D01*
X52895666Y-62253809D01*
X52943285Y-62444285D01*
X52990904Y-62539523D01*
X53086142Y-62634761D01*
X53229000Y-62682380D01*
X53324238Y-62682380D01*
X53467095Y-62634761D01*
X53514714Y-62587142D01*
X53514714Y-62253809D01*
X53324238Y-62253809D01*
X53943285Y-62682380D02*
X53943285Y-61682380D01*
X54514714Y-62682380D01*
X54514714Y-61682380D01*
X54990904Y-62682380D02*
X54990904Y-61682380D01*
X55229000Y-61682380D01*
X55371857Y-61730000D01*
X55467095Y-61825238D01*
X55514714Y-61920476D01*
X55562333Y-62110952D01*
X55562333Y-62253809D01*
X55514714Y-62444285D01*
X55467095Y-62539523D01*
X55371857Y-62634761D01*
X55229000Y-62682380D01*
X54990904Y-62682380D01*
X103759095Y-63000000D02*
X103663857Y-62952380D01*
X103521000Y-62952380D01*
X103378142Y-63000000D01*
X103282904Y-63095238D01*
X103235285Y-63190476D01*
X103187666Y-63380952D01*
X103187666Y-63523809D01*
X103235285Y-63714285D01*
X103282904Y-63809523D01*
X103378142Y-63904761D01*
X103521000Y-63952380D01*
X103616238Y-63952380D01*
X103759095Y-63904761D01*
X103806714Y-63857142D01*
X103806714Y-63523809D01*
X103616238Y-63523809D01*
X104235285Y-63952380D02*
X104235285Y-62952380D01*
X104806714Y-63952380D01*
X104806714Y-62952380D01*
X105282904Y-63952380D02*
X105282904Y-62952380D01*
X105521000Y-62952380D01*
X105663857Y-63000000D01*
X105759095Y-63095238D01*
X105806714Y-63190476D01*
X105854333Y-63380952D01*
X105854333Y-63523809D01*
X105806714Y-63714285D01*
X105759095Y-63809523D01*
X105663857Y-63904761D01*
X105521000Y-63952380D01*
X105282904Y-63952380D01*
%TO.C,GP6*%
X101100000Y-44148285D02*
X101052380Y-44243523D01*
X101052380Y-44386380D01*
X101100000Y-44529238D01*
X101195238Y-44624476D01*
X101290476Y-44672095D01*
X101480952Y-44719714D01*
X101623809Y-44719714D01*
X101814285Y-44672095D01*
X101909523Y-44624476D01*
X102004761Y-44529238D01*
X102052380Y-44386380D01*
X102052380Y-44291142D01*
X102004761Y-44148285D01*
X101957142Y-44100666D01*
X101623809Y-44100666D01*
X101623809Y-44291142D01*
X102052380Y-43672095D02*
X101052380Y-43672095D01*
X101052380Y-43291142D01*
X101100000Y-43195904D01*
X101147619Y-43148285D01*
X101242857Y-43100666D01*
X101385714Y-43100666D01*
X101480952Y-43148285D01*
X101528571Y-43195904D01*
X101576190Y-43291142D01*
X101576190Y-43672095D01*
X101052380Y-42243523D02*
X101052380Y-42434000D01*
X101100000Y-42529238D01*
X101147619Y-42576857D01*
X101290476Y-42672095D01*
X101480952Y-42719714D01*
X101861904Y-42719714D01*
X101957142Y-42672095D01*
X102004761Y-42624476D01*
X102052380Y-42529238D01*
X102052380Y-42338761D01*
X102004761Y-42243523D01*
X101957142Y-42195904D01*
X101861904Y-42148285D01*
X101623809Y-42148285D01*
X101528571Y-42195904D01*
X101480952Y-42243523D01*
X101433333Y-42338761D01*
X101433333Y-42529238D01*
X101480952Y-42624476D01*
X101528571Y-42672095D01*
X101623809Y-42719714D01*
X102004761Y-33996095D02*
X102052380Y-33853238D01*
X102052380Y-33615142D01*
X102004761Y-33519904D01*
X101957142Y-33472285D01*
X101861904Y-33424666D01*
X101766666Y-33424666D01*
X101671428Y-33472285D01*
X101623809Y-33519904D01*
X101576190Y-33615142D01*
X101528571Y-33805619D01*
X101480952Y-33900857D01*
X101433333Y-33948476D01*
X101338095Y-33996095D01*
X101242857Y-33996095D01*
X101147619Y-33948476D01*
X101100000Y-33900857D01*
X101052380Y-33805619D01*
X101052380Y-33567523D01*
X101100000Y-33424666D01*
X102052380Y-32424666D02*
X101576190Y-32758000D01*
X102052380Y-32996095D02*
X101052380Y-32996095D01*
X101052380Y-32615142D01*
X101100000Y-32519904D01*
X101147619Y-32472285D01*
X101242857Y-32424666D01*
X101385714Y-32424666D01*
X101480952Y-32472285D01*
X101528571Y-32519904D01*
X101576190Y-32615142D01*
X101576190Y-32996095D01*
X101052380Y-32138952D02*
X102052380Y-31805619D01*
X101052380Y-31472285D01*
X101052380Y-30948476D02*
X101052380Y-30758000D01*
X101100000Y-30662761D01*
X101195238Y-30567523D01*
X101385714Y-30519904D01*
X101719047Y-30519904D01*
X101909523Y-30567523D01*
X102004761Y-30662761D01*
X102052380Y-30758000D01*
X102052380Y-30948476D01*
X102004761Y-31043714D01*
X101909523Y-31138952D01*
X101719047Y-31186571D01*
X101385714Y-31186571D01*
X101195238Y-31138952D01*
X101100000Y-31043714D01*
X101052380Y-30948476D01*
%TO.C,Q1*%
X84406761Y-46517619D02*
X84311523Y-46470000D01*
X84216285Y-46374761D01*
X84073428Y-46231904D01*
X83978190Y-46184285D01*
X83882952Y-46184285D01*
X83930571Y-46422380D02*
X83835333Y-46374761D01*
X83740095Y-46279523D01*
X83692476Y-46089047D01*
X83692476Y-45755714D01*
X83740095Y-45565238D01*
X83835333Y-45470000D01*
X83930571Y-45422380D01*
X84121047Y-45422380D01*
X84216285Y-45470000D01*
X84311523Y-45565238D01*
X84359142Y-45755714D01*
X84359142Y-46089047D01*
X84311523Y-46279523D01*
X84216285Y-46374761D01*
X84121047Y-46422380D01*
X83930571Y-46422380D01*
X85311523Y-46422380D02*
X84740095Y-46422380D01*
X85025809Y-46422380D02*
X85025809Y-45422380D01*
X84930571Y-45565238D01*
X84835333Y-45660476D01*
X84740095Y-45708095D01*
%TO.C,U3*%
X105608380Y-82343333D02*
X105132190Y-82676666D01*
X105608380Y-82914761D02*
X104608380Y-82914761D01*
X104608380Y-82533809D01*
X104656000Y-82438571D01*
X104703619Y-82390952D01*
X104798857Y-82343333D01*
X104941714Y-82343333D01*
X105036952Y-82390952D01*
X105084571Y-82438571D01*
X105132190Y-82533809D01*
X105132190Y-82914761D01*
X105560761Y-81533809D02*
X105608380Y-81629047D01*
X105608380Y-81819523D01*
X105560761Y-81914761D01*
X105465523Y-81962380D01*
X105084571Y-81962380D01*
X104989333Y-81914761D01*
X104941714Y-81819523D01*
X104941714Y-81629047D01*
X104989333Y-81533809D01*
X105084571Y-81486190D01*
X105179809Y-81486190D01*
X105275047Y-81962380D01*
X105560761Y-80629047D02*
X105608380Y-80724285D01*
X105608380Y-80914761D01*
X105560761Y-81010000D01*
X105513142Y-81057619D01*
X105417904Y-81105238D01*
X105132190Y-81105238D01*
X105036952Y-81057619D01*
X104989333Y-81010000D01*
X104941714Y-80914761D01*
X104941714Y-80724285D01*
X104989333Y-80629047D01*
X105560761Y-79819523D02*
X105608380Y-79914761D01*
X105608380Y-80105238D01*
X105560761Y-80200476D01*
X105465523Y-80248095D01*
X105084571Y-80248095D01*
X104989333Y-80200476D01*
X104941714Y-80105238D01*
X104941714Y-79914761D01*
X104989333Y-79819523D01*
X105084571Y-79771904D01*
X105179809Y-79771904D01*
X105275047Y-80248095D01*
X105608380Y-79343333D02*
X104941714Y-79343333D01*
X104608380Y-79343333D02*
X104656000Y-79390952D01*
X104703619Y-79343333D01*
X104656000Y-79295714D01*
X104608380Y-79343333D01*
X104703619Y-79343333D01*
X104941714Y-78962380D02*
X105608380Y-78724285D01*
X104941714Y-78486190D01*
X105560761Y-77724285D02*
X105608380Y-77819523D01*
X105608380Y-78010000D01*
X105560761Y-78105238D01*
X105465523Y-78152857D01*
X105084571Y-78152857D01*
X104989333Y-78105238D01*
X104941714Y-78010000D01*
X104941714Y-77819523D01*
X104989333Y-77724285D01*
X105084571Y-77676666D01*
X105179809Y-77676666D01*
X105275047Y-78152857D01*
X105608380Y-77248095D02*
X104941714Y-77248095D01*
X105132190Y-77248095D02*
X105036952Y-77200476D01*
X104989333Y-77152857D01*
X104941714Y-77057619D01*
X104941714Y-76962380D01*
%TO.C,U1*%
X60802000Y-83637380D02*
X60468666Y-83161190D01*
X60230571Y-83637380D02*
X60230571Y-82637380D01*
X60611523Y-82637380D01*
X60706761Y-82685000D01*
X60754380Y-82732619D01*
X60802000Y-82827857D01*
X60802000Y-82970714D01*
X60754380Y-83065952D01*
X60706761Y-83113571D01*
X60611523Y-83161190D01*
X60230571Y-83161190D01*
X61659142Y-83637380D02*
X61659142Y-83113571D01*
X61611523Y-83018333D01*
X61516285Y-82970714D01*
X61325809Y-82970714D01*
X61230571Y-83018333D01*
X61659142Y-83589761D02*
X61563904Y-83637380D01*
X61325809Y-83637380D01*
X61230571Y-83589761D01*
X61182952Y-83494523D01*
X61182952Y-83399285D01*
X61230571Y-83304047D01*
X61325809Y-83256428D01*
X61563904Y-83256428D01*
X61659142Y-83208809D01*
X62087714Y-83589761D02*
X62182952Y-83637380D01*
X62373428Y-83637380D01*
X62468666Y-83589761D01*
X62516285Y-83494523D01*
X62516285Y-83446904D01*
X62468666Y-83351666D01*
X62373428Y-83304047D01*
X62230571Y-83304047D01*
X62135333Y-83256428D01*
X62087714Y-83161190D01*
X62087714Y-83113571D01*
X62135333Y-83018333D01*
X62230571Y-82970714D01*
X62373428Y-82970714D01*
X62468666Y-83018333D01*
X62944857Y-82970714D02*
X62944857Y-83970714D01*
X62944857Y-83018333D02*
X63040095Y-82970714D01*
X63230571Y-82970714D01*
X63325809Y-83018333D01*
X63373428Y-83065952D01*
X63421047Y-83161190D01*
X63421047Y-83446904D01*
X63373428Y-83542142D01*
X63325809Y-83589761D01*
X63230571Y-83637380D01*
X63040095Y-83637380D01*
X62944857Y-83589761D01*
X63849619Y-83637380D02*
X63849619Y-82637380D01*
X63849619Y-83018333D02*
X63944857Y-82970714D01*
X64135333Y-82970714D01*
X64230571Y-83018333D01*
X64278190Y-83065952D01*
X64325809Y-83161190D01*
X64325809Y-83446904D01*
X64278190Y-83542142D01*
X64230571Y-83589761D01*
X64135333Y-83637380D01*
X63944857Y-83637380D01*
X63849619Y-83589761D01*
X65135333Y-83589761D02*
X65040095Y-83637380D01*
X64849619Y-83637380D01*
X64754380Y-83589761D01*
X64706761Y-83494523D01*
X64706761Y-83113571D01*
X64754380Y-83018333D01*
X64849619Y-82970714D01*
X65040095Y-82970714D01*
X65135333Y-83018333D01*
X65182952Y-83113571D01*
X65182952Y-83208809D01*
X64706761Y-83304047D01*
X65611523Y-83637380D02*
X65611523Y-82970714D01*
X65611523Y-83161190D02*
X65659142Y-83065952D01*
X65706761Y-83018333D01*
X65802000Y-82970714D01*
X65897238Y-82970714D01*
X66230571Y-83637380D02*
X66230571Y-82970714D01*
X66230571Y-83161190D02*
X66278190Y-83065952D01*
X66325809Y-83018333D01*
X66421047Y-82970714D01*
X66516285Y-82970714D01*
X66754380Y-82970714D02*
X66992476Y-83637380D01*
X67230571Y-82970714D02*
X66992476Y-83637380D01*
X66897238Y-83875476D01*
X66849619Y-83923095D01*
X66754380Y-83970714D01*
X68373428Y-83637380D02*
X68373428Y-82637380D01*
X68754380Y-82637380D01*
X68849619Y-82685000D01*
X68897238Y-82732619D01*
X68944857Y-82827857D01*
X68944857Y-82970714D01*
X68897238Y-83065952D01*
X68849619Y-83113571D01*
X68754380Y-83161190D01*
X68373428Y-83161190D01*
X69373428Y-83637380D02*
X69373428Y-82970714D01*
X69373428Y-82637380D02*
X69325809Y-82685000D01*
X69373428Y-82732619D01*
X69421047Y-82685000D01*
X69373428Y-82637380D01*
X69373428Y-82732619D01*
X70611523Y-83637380D02*
X70611523Y-82637380D01*
X70992476Y-82637380D01*
X71087714Y-82685000D01*
X71135333Y-82732619D01*
X71182952Y-82827857D01*
X71182952Y-82970714D01*
X71135333Y-83065952D01*
X71087714Y-83113571D01*
X70992476Y-83161190D01*
X70611523Y-83161190D01*
X71611523Y-83637380D02*
X71611523Y-82970714D01*
X71611523Y-82637380D02*
X71563904Y-82685000D01*
X71611523Y-82732619D01*
X71659142Y-82685000D01*
X71611523Y-82637380D01*
X71611523Y-82732619D01*
X72516285Y-83589761D02*
X72421047Y-83637380D01*
X72230571Y-83637380D01*
X72135333Y-83589761D01*
X72087714Y-83542142D01*
X72040095Y-83446904D01*
X72040095Y-83161190D01*
X72087714Y-83065952D01*
X72135333Y-83018333D01*
X72230571Y-82970714D01*
X72421047Y-82970714D01*
X72516285Y-83018333D01*
X73087714Y-83637380D02*
X72992476Y-83589761D01*
X72944857Y-83542142D01*
X72897238Y-83446904D01*
X72897238Y-83161190D01*
X72944857Y-83065952D01*
X72992476Y-83018333D01*
X73087714Y-82970714D01*
X73230571Y-82970714D01*
X73325809Y-83018333D01*
X73373428Y-83065952D01*
X73421047Y-83161190D01*
X73421047Y-83446904D01*
X73373428Y-83542142D01*
X73325809Y-83589761D01*
X73230571Y-83637380D01*
X73087714Y-83637380D01*
%TO.C,R1*%
X83764380Y-39536666D02*
X83288190Y-39870000D01*
X83764380Y-40108095D02*
X82764380Y-40108095D01*
X82764380Y-39727142D01*
X82812000Y-39631904D01*
X82859619Y-39584285D01*
X82954857Y-39536666D01*
X83097714Y-39536666D01*
X83192952Y-39584285D01*
X83240571Y-39631904D01*
X83288190Y-39727142D01*
X83288190Y-40108095D01*
X83764380Y-38584285D02*
X83764380Y-39155714D01*
X83764380Y-38870000D02*
X82764380Y-38870000D01*
X82907238Y-38965238D01*
X83002476Y-39060476D01*
X83050095Y-39155714D01*
X80727714Y-40393809D02*
X81394380Y-40393809D01*
X80346761Y-40631904D02*
X81061047Y-40870000D01*
X81061047Y-40250952D01*
X81299142Y-39870000D02*
X81346761Y-39822380D01*
X81394380Y-39870000D01*
X81346761Y-39917619D01*
X81299142Y-39870000D01*
X81394380Y-39870000D01*
X80394380Y-39489047D02*
X80394380Y-38822380D01*
X81394380Y-39250952D01*
X81394380Y-38441428D02*
X80394380Y-38441428D01*
X81394380Y-37870000D02*
X80822952Y-38298571D01*
X80394380Y-37870000D02*
X80965809Y-38441428D01*
%TO.C,R2*%
X93940333Y-49982380D02*
X93607000Y-49506190D01*
X93368904Y-49982380D02*
X93368904Y-48982380D01*
X93749857Y-48982380D01*
X93845095Y-49030000D01*
X93892714Y-49077619D01*
X93940333Y-49172857D01*
X93940333Y-49315714D01*
X93892714Y-49410952D01*
X93845095Y-49458571D01*
X93749857Y-49506190D01*
X93368904Y-49506190D01*
X94321285Y-49077619D02*
X94368904Y-49030000D01*
X94464142Y-48982380D01*
X94702238Y-48982380D01*
X94797476Y-49030000D01*
X94845095Y-49077619D01*
X94892714Y-49172857D01*
X94892714Y-49268095D01*
X94845095Y-49410952D01*
X94273666Y-49982380D01*
X94892714Y-49982380D01*
X93440333Y-47612380D02*
X92868904Y-47612380D01*
X93154619Y-47612380D02*
X93154619Y-46612380D01*
X93059380Y-46755238D01*
X92964142Y-46850476D01*
X92868904Y-46898095D01*
X94059380Y-46612380D02*
X94154619Y-46612380D01*
X94249857Y-46660000D01*
X94297476Y-46707619D01*
X94345095Y-46802857D01*
X94392714Y-46993333D01*
X94392714Y-47231428D01*
X94345095Y-47421904D01*
X94297476Y-47517142D01*
X94249857Y-47564761D01*
X94154619Y-47612380D01*
X94059380Y-47612380D01*
X93964142Y-47564761D01*
X93916523Y-47517142D01*
X93868904Y-47421904D01*
X93821285Y-47231428D01*
X93821285Y-46993333D01*
X93868904Y-46802857D01*
X93916523Y-46707619D01*
X93964142Y-46660000D01*
X94059380Y-46612380D01*
X95011761Y-46612380D02*
X95107000Y-46612380D01*
X95202238Y-46660000D01*
X95249857Y-46707619D01*
X95297476Y-46802857D01*
X95345095Y-46993333D01*
X95345095Y-47231428D01*
X95297476Y-47421904D01*
X95249857Y-47517142D01*
X95202238Y-47564761D01*
X95107000Y-47612380D01*
X95011761Y-47612380D01*
X94916523Y-47564761D01*
X94868904Y-47517142D01*
X94821285Y-47421904D01*
X94773666Y-47231428D01*
X94773666Y-46993333D01*
X94821285Y-46802857D01*
X94868904Y-46707619D01*
X94916523Y-46660000D01*
X95011761Y-46612380D01*
%TO.C,U2*%
X87395333Y-65222380D02*
X86919142Y-65222380D01*
X86919142Y-64222380D01*
X87681047Y-65174761D02*
X87823904Y-65222380D01*
X88062000Y-65222380D01*
X88157238Y-65174761D01*
X88204857Y-65127142D01*
X88252476Y-65031904D01*
X88252476Y-64936666D01*
X88204857Y-64841428D01*
X88157238Y-64793809D01*
X88062000Y-64746190D01*
X87871523Y-64698571D01*
X87776285Y-64650952D01*
X87728666Y-64603333D01*
X87681047Y-64508095D01*
X87681047Y-64412857D01*
X87728666Y-64317619D01*
X87776285Y-64270000D01*
X87871523Y-64222380D01*
X88109619Y-64222380D01*
X88252476Y-64270000D01*
X88681047Y-65222380D02*
X88681047Y-64222380D01*
X89014380Y-64936666D01*
X89347714Y-64222380D01*
X89347714Y-65222380D01*
X89871523Y-65222380D02*
X90062000Y-65222380D01*
X90157238Y-65174761D01*
X90204857Y-65127142D01*
X90300095Y-64984285D01*
X90347714Y-64793809D01*
X90347714Y-64412857D01*
X90300095Y-64317619D01*
X90252476Y-64270000D01*
X90157238Y-64222380D01*
X89966761Y-64222380D01*
X89871523Y-64270000D01*
X89823904Y-64317619D01*
X89776285Y-64412857D01*
X89776285Y-64650952D01*
X89823904Y-64746190D01*
X89871523Y-64793809D01*
X89966761Y-64841428D01*
X90157238Y-64841428D01*
X90252476Y-64793809D01*
X90300095Y-64746190D01*
X90347714Y-64650952D01*
X90776285Y-65222380D02*
X90776285Y-64222380D01*
X91014380Y-64222380D01*
X91157238Y-64270000D01*
X91252476Y-64365238D01*
X91300095Y-64460476D01*
X91347714Y-64650952D01*
X91347714Y-64793809D01*
X91300095Y-64984285D01*
X91252476Y-65079523D01*
X91157238Y-65174761D01*
X91014380Y-65222380D01*
X90776285Y-65222380D01*
X91728666Y-65174761D02*
X91871523Y-65222380D01*
X92109619Y-65222380D01*
X92204857Y-65174761D01*
X92252476Y-65127142D01*
X92300095Y-65031904D01*
X92300095Y-64936666D01*
X92252476Y-64841428D01*
X92204857Y-64793809D01*
X92109619Y-64746190D01*
X91919142Y-64698571D01*
X91823904Y-64650952D01*
X91776285Y-64603333D01*
X91728666Y-64508095D01*
X91728666Y-64412857D01*
X91776285Y-64317619D01*
X91823904Y-64270000D01*
X91919142Y-64222380D01*
X92157238Y-64222380D01*
X92300095Y-64270000D01*
X93252476Y-65222380D02*
X92681047Y-65222380D01*
X92966761Y-65222380D02*
X92966761Y-64222380D01*
X92871523Y-64365238D01*
X92776285Y-64460476D01*
X92681047Y-64508095D01*
%TO.C,GP5*%
X90940000Y-44148285D02*
X90892380Y-44243523D01*
X90892380Y-44386380D01*
X90940000Y-44529238D01*
X91035238Y-44624476D01*
X91130476Y-44672095D01*
X91320952Y-44719714D01*
X91463809Y-44719714D01*
X91654285Y-44672095D01*
X91749523Y-44624476D01*
X91844761Y-44529238D01*
X91892380Y-44386380D01*
X91892380Y-44291142D01*
X91844761Y-44148285D01*
X91797142Y-44100666D01*
X91463809Y-44100666D01*
X91463809Y-44291142D01*
X91892380Y-43672095D02*
X90892380Y-43672095D01*
X90892380Y-43291142D01*
X90940000Y-43195904D01*
X90987619Y-43148285D01*
X91082857Y-43100666D01*
X91225714Y-43100666D01*
X91320952Y-43148285D01*
X91368571Y-43195904D01*
X91416190Y-43291142D01*
X91416190Y-43672095D01*
X90892380Y-42195904D02*
X90892380Y-42672095D01*
X91368571Y-42719714D01*
X91320952Y-42672095D01*
X91273333Y-42576857D01*
X91273333Y-42338761D01*
X91320952Y-42243523D01*
X91368571Y-42195904D01*
X91463809Y-42148285D01*
X91701904Y-42148285D01*
X91797142Y-42195904D01*
X91844761Y-42243523D01*
X91892380Y-42338761D01*
X91892380Y-42576857D01*
X91844761Y-42672095D01*
X91797142Y-42719714D01*
X91368571Y-33924666D02*
X91368571Y-33591333D01*
X91892380Y-33448476D02*
X91892380Y-33924666D01*
X90892380Y-33924666D01*
X90892380Y-33448476D01*
X91844761Y-33067523D02*
X91892380Y-32924666D01*
X91892380Y-32686571D01*
X91844761Y-32591333D01*
X91797142Y-32543714D01*
X91701904Y-32496095D01*
X91606666Y-32496095D01*
X91511428Y-32543714D01*
X91463809Y-32591333D01*
X91416190Y-32686571D01*
X91368571Y-32877047D01*
X91320952Y-32972285D01*
X91273333Y-33019904D01*
X91178095Y-33067523D01*
X91082857Y-33067523D01*
X90987619Y-33019904D01*
X90940000Y-32972285D01*
X90892380Y-32877047D01*
X90892380Y-32638952D01*
X90940000Y-32496095D01*
X91797142Y-31496095D02*
X91844761Y-31543714D01*
X91892380Y-31686571D01*
X91892380Y-31781809D01*
X91844761Y-31924666D01*
X91749523Y-32019904D01*
X91654285Y-32067523D01*
X91463809Y-32115142D01*
X91320952Y-32115142D01*
X91130476Y-32067523D01*
X91035238Y-32019904D01*
X90940000Y-31924666D01*
X90892380Y-31781809D01*
X90892380Y-31686571D01*
X90940000Y-31543714D01*
X90987619Y-31496095D01*
X91225714Y-30638952D02*
X91892380Y-30638952D01*
X90844761Y-30877047D02*
X91559047Y-31115142D01*
X91559047Y-30496095D01*
%TO.C,GP4*%
X93480000Y-44148285D02*
X93432380Y-44243523D01*
X93432380Y-44386380D01*
X93480000Y-44529238D01*
X93575238Y-44624476D01*
X93670476Y-44672095D01*
X93860952Y-44719714D01*
X94003809Y-44719714D01*
X94194285Y-44672095D01*
X94289523Y-44624476D01*
X94384761Y-44529238D01*
X94432380Y-44386380D01*
X94432380Y-44291142D01*
X94384761Y-44148285D01*
X94337142Y-44100666D01*
X94003809Y-44100666D01*
X94003809Y-44291142D01*
X94432380Y-43672095D02*
X93432380Y-43672095D01*
X93432380Y-43291142D01*
X93480000Y-43195904D01*
X93527619Y-43148285D01*
X93622857Y-43100666D01*
X93765714Y-43100666D01*
X93860952Y-43148285D01*
X93908571Y-43195904D01*
X93956190Y-43291142D01*
X93956190Y-43672095D01*
X93765714Y-42243523D02*
X94432380Y-42243523D01*
X93384761Y-42481619D02*
X94099047Y-42719714D01*
X94099047Y-42100666D01*
X93908571Y-34051666D02*
X93908571Y-33718333D01*
X94432380Y-33575476D02*
X94432380Y-34051666D01*
X93432380Y-34051666D01*
X93432380Y-33575476D01*
X94384761Y-33194523D02*
X94432380Y-33051666D01*
X94432380Y-32813571D01*
X94384761Y-32718333D01*
X94337142Y-32670714D01*
X94241904Y-32623095D01*
X94146666Y-32623095D01*
X94051428Y-32670714D01*
X94003809Y-32718333D01*
X93956190Y-32813571D01*
X93908571Y-33004047D01*
X93860952Y-33099285D01*
X93813333Y-33146904D01*
X93718095Y-33194523D01*
X93622857Y-33194523D01*
X93527619Y-33146904D01*
X93480000Y-33099285D01*
X93432380Y-33004047D01*
X93432380Y-32765952D01*
X93480000Y-32623095D01*
X94337142Y-31623095D02*
X94384761Y-31670714D01*
X94432380Y-31813571D01*
X94432380Y-31908809D01*
X94384761Y-32051666D01*
X94289523Y-32146904D01*
X94194285Y-32194523D01*
X94003809Y-32242142D01*
X93860952Y-32242142D01*
X93670476Y-32194523D01*
X93575238Y-32146904D01*
X93480000Y-32051666D01*
X93432380Y-31908809D01*
X93432380Y-31813571D01*
X93480000Y-31670714D01*
X93527619Y-31623095D01*
X93432380Y-31289761D02*
X93432380Y-30670714D01*
X93813333Y-31004047D01*
X93813333Y-30861190D01*
X93860952Y-30765952D01*
X93908571Y-30718333D01*
X94003809Y-30670714D01*
X94241904Y-30670714D01*
X94337142Y-30718333D01*
X94384761Y-30765952D01*
X94432380Y-30861190D01*
X94432380Y-31146904D01*
X94384761Y-31242142D01*
X94337142Y-31289761D01*
%TO.C,SPI1*%
X106196000Y-43794761D02*
X106338857Y-43842380D01*
X106576952Y-43842380D01*
X106672190Y-43794761D01*
X106719809Y-43747142D01*
X106767428Y-43651904D01*
X106767428Y-43556666D01*
X106719809Y-43461428D01*
X106672190Y-43413809D01*
X106576952Y-43366190D01*
X106386476Y-43318571D01*
X106291238Y-43270952D01*
X106243619Y-43223333D01*
X106196000Y-43128095D01*
X106196000Y-43032857D01*
X106243619Y-42937619D01*
X106291238Y-42890000D01*
X106386476Y-42842380D01*
X106624571Y-42842380D01*
X106767428Y-42890000D01*
X107196000Y-43842380D02*
X107196000Y-42842380D01*
X107576952Y-42842380D01*
X107672190Y-42890000D01*
X107719809Y-42937619D01*
X107767428Y-43032857D01*
X107767428Y-43175714D01*
X107719809Y-43270952D01*
X107672190Y-43318571D01*
X107576952Y-43366190D01*
X107196000Y-43366190D01*
X108196000Y-43842380D02*
X108196000Y-42842380D01*
X109196000Y-43842380D02*
X108624571Y-43842380D01*
X108910285Y-43842380D02*
X108910285Y-42842380D01*
X108815047Y-42985238D01*
X108719809Y-43080476D01*
X108624571Y-43128095D01*
%TO.C,GP3*%
X96020000Y-44148285D02*
X95972380Y-44243523D01*
X95972380Y-44386380D01*
X96020000Y-44529238D01*
X96115238Y-44624476D01*
X96210476Y-44672095D01*
X96400952Y-44719714D01*
X96543809Y-44719714D01*
X96734285Y-44672095D01*
X96829523Y-44624476D01*
X96924761Y-44529238D01*
X96972380Y-44386380D01*
X96972380Y-44291142D01*
X96924761Y-44148285D01*
X96877142Y-44100666D01*
X96543809Y-44100666D01*
X96543809Y-44291142D01*
X96972380Y-43672095D02*
X95972380Y-43672095D01*
X95972380Y-43291142D01*
X96020000Y-43195904D01*
X96067619Y-43148285D01*
X96162857Y-43100666D01*
X96305714Y-43100666D01*
X96400952Y-43148285D01*
X96448571Y-43195904D01*
X96496190Y-43291142D01*
X96496190Y-43672095D01*
X95972380Y-42767333D02*
X95972380Y-42148285D01*
X96353333Y-42481619D01*
X96353333Y-42338761D01*
X96400952Y-42243523D01*
X96448571Y-42195904D01*
X96543809Y-42148285D01*
X96781904Y-42148285D01*
X96877142Y-42195904D01*
X96924761Y-42243523D01*
X96972380Y-42338761D01*
X96972380Y-42624476D01*
X96924761Y-42719714D01*
X96877142Y-42767333D01*
X96448571Y-34051666D02*
X96448571Y-33718333D01*
X96972380Y-33575476D02*
X96972380Y-34051666D01*
X95972380Y-34051666D01*
X95972380Y-33575476D01*
X96924761Y-33194523D02*
X96972380Y-33051666D01*
X96972380Y-32813571D01*
X96924761Y-32718333D01*
X96877142Y-32670714D01*
X96781904Y-32623095D01*
X96686666Y-32623095D01*
X96591428Y-32670714D01*
X96543809Y-32718333D01*
X96496190Y-32813571D01*
X96448571Y-33004047D01*
X96400952Y-33099285D01*
X96353333Y-33146904D01*
X96258095Y-33194523D01*
X96162857Y-33194523D01*
X96067619Y-33146904D01*
X96020000Y-33099285D01*
X95972380Y-33004047D01*
X95972380Y-32765952D01*
X96020000Y-32623095D01*
X96877142Y-31623095D02*
X96924761Y-31670714D01*
X96972380Y-31813571D01*
X96972380Y-31908809D01*
X96924761Y-32051666D01*
X96829523Y-32146904D01*
X96734285Y-32194523D01*
X96543809Y-32242142D01*
X96400952Y-32242142D01*
X96210476Y-32194523D01*
X96115238Y-32146904D01*
X96020000Y-32051666D01*
X95972380Y-31908809D01*
X95972380Y-31813571D01*
X96020000Y-31670714D01*
X96067619Y-31623095D01*
X96067619Y-31242142D02*
X96020000Y-31194523D01*
X95972380Y-31099285D01*
X95972380Y-30861190D01*
X96020000Y-30765952D01*
X96067619Y-30718333D01*
X96162857Y-30670714D01*
X96258095Y-30670714D01*
X96400952Y-30718333D01*
X96972380Y-31289761D01*
X96972380Y-30670714D01*
%TO.C,GP2*%
X98560000Y-44148285D02*
X98512380Y-44243523D01*
X98512380Y-44386380D01*
X98560000Y-44529238D01*
X98655238Y-44624476D01*
X98750476Y-44672095D01*
X98940952Y-44719714D01*
X99083809Y-44719714D01*
X99274285Y-44672095D01*
X99369523Y-44624476D01*
X99464761Y-44529238D01*
X99512380Y-44386380D01*
X99512380Y-44291142D01*
X99464761Y-44148285D01*
X99417142Y-44100666D01*
X99083809Y-44100666D01*
X99083809Y-44291142D01*
X99512380Y-43672095D02*
X98512380Y-43672095D01*
X98512380Y-43291142D01*
X98560000Y-43195904D01*
X98607619Y-43148285D01*
X98702857Y-43100666D01*
X98845714Y-43100666D01*
X98940952Y-43148285D01*
X98988571Y-43195904D01*
X99036190Y-43291142D01*
X99036190Y-43672095D01*
X98607619Y-42719714D02*
X98560000Y-42672095D01*
X98512380Y-42576857D01*
X98512380Y-42338761D01*
X98560000Y-42243523D01*
X98607619Y-42195904D01*
X98702857Y-42148285D01*
X98798095Y-42148285D01*
X98940952Y-42195904D01*
X99512380Y-42767333D01*
X99512380Y-42148285D01*
X98988571Y-34051666D02*
X98988571Y-33718333D01*
X99512380Y-33575476D02*
X99512380Y-34051666D01*
X98512380Y-34051666D01*
X98512380Y-33575476D01*
X99464761Y-33194523D02*
X99512380Y-33051666D01*
X99512380Y-32813571D01*
X99464761Y-32718333D01*
X99417142Y-32670714D01*
X99321904Y-32623095D01*
X99226666Y-32623095D01*
X99131428Y-32670714D01*
X99083809Y-32718333D01*
X99036190Y-32813571D01*
X98988571Y-33004047D01*
X98940952Y-33099285D01*
X98893333Y-33146904D01*
X98798095Y-33194523D01*
X98702857Y-33194523D01*
X98607619Y-33146904D01*
X98560000Y-33099285D01*
X98512380Y-33004047D01*
X98512380Y-32765952D01*
X98560000Y-32623095D01*
X99417142Y-31623095D02*
X99464761Y-31670714D01*
X99512380Y-31813571D01*
X99512380Y-31908809D01*
X99464761Y-32051666D01*
X99369523Y-32146904D01*
X99274285Y-32194523D01*
X99083809Y-32242142D01*
X98940952Y-32242142D01*
X98750476Y-32194523D01*
X98655238Y-32146904D01*
X98560000Y-32051666D01*
X98512380Y-31908809D01*
X98512380Y-31813571D01*
X98560000Y-31670714D01*
X98607619Y-31623095D01*
X99512380Y-30670714D02*
X99512380Y-31242142D01*
X99512380Y-30956428D02*
X98512380Y-30956428D01*
X98655238Y-31051666D01*
X98750476Y-31146904D01*
X98798095Y-31242142D01*
%TO.C,I2C1*%
X106243619Y-61622380D02*
X106243619Y-60622380D01*
X106672190Y-60717619D02*
X106719809Y-60670000D01*
X106815047Y-60622380D01*
X107053142Y-60622380D01*
X107148380Y-60670000D01*
X107196000Y-60717619D01*
X107243619Y-60812857D01*
X107243619Y-60908095D01*
X107196000Y-61050952D01*
X106624571Y-61622380D01*
X107243619Y-61622380D01*
X108243619Y-61527142D02*
X108196000Y-61574761D01*
X108053142Y-61622380D01*
X107957904Y-61622380D01*
X107815047Y-61574761D01*
X107719809Y-61479523D01*
X107672190Y-61384285D01*
X107624571Y-61193809D01*
X107624571Y-61050952D01*
X107672190Y-60860476D01*
X107719809Y-60765238D01*
X107815047Y-60670000D01*
X107957904Y-60622380D01*
X108053142Y-60622380D01*
X108196000Y-60670000D01*
X108243619Y-60717619D01*
X109196000Y-61622380D02*
X108624571Y-61622380D01*
X108910285Y-61622380D02*
X108910285Y-60622380D01*
X108815047Y-60765238D01*
X108719809Y-60860476D01*
X108624571Y-60908095D01*
D12*
%TO.C,GP6*%
X102930000Y-41970000D02*
X101600000Y-41970000D01*
X102930000Y-34230000D02*
X100270000Y-34230000D01*
X100270000Y-39370000D02*
X100270000Y-34230000D01*
X102930000Y-39370000D02*
X100270000Y-39370000D01*
X102930000Y-39370000D02*
X102930000Y-34230000D01*
X102930000Y-40640000D02*
X102930000Y-41970000D01*
%TO.C,Q1*%
X82562000Y-51230000D02*
X86412000Y-51230000D01*
X86450611Y-51220122D02*
G75*
G03*
X82562000Y-51230000I-1948611J1690122D01*
G01*
%TO.C,U3*%
X106426000Y-83820000D02*
X108966000Y-83820000D01*
X108966000Y-83820000D02*
X108966000Y-73660000D01*
X108966000Y-73660000D02*
X106426000Y-73660000D01*
X106426000Y-73660000D02*
X106426000Y-83820000D01*
%TO.C,U1*%
X60452000Y-30353000D02*
X73152000Y-30353000D01*
X73152000Y-30353000D02*
X73152000Y-82042000D01*
X73152000Y-82042000D02*
X60452000Y-82042000D01*
X60452000Y-82042000D02*
X60452000Y-30353000D01*
D13*
X62281197Y-31623000D02*
G75*
G03*
X62281197Y-31623000I-813197J0D01*
G01*
D12*
%TO.C,R1*%
X83312000Y-35330000D02*
X83312000Y-36100000D01*
X81942000Y-36100000D02*
X81942000Y-42640000D01*
X81942000Y-42640000D02*
X84682000Y-42640000D01*
X83312000Y-43410000D02*
X83312000Y-42640000D01*
X84682000Y-36100000D02*
X81942000Y-36100000D01*
X84682000Y-42640000D02*
X84682000Y-36100000D01*
%TO.C,R2*%
X97377000Y-50900000D02*
X97377000Y-48160000D01*
X90837000Y-50900000D02*
X97377000Y-50900000D01*
X97377000Y-48160000D02*
X90837000Y-48160000D01*
X90067000Y-49530000D02*
X90837000Y-49530000D01*
X98147000Y-49530000D02*
X97377000Y-49530000D01*
X90837000Y-48160000D02*
X90837000Y-50900000D01*
D13*
%TO.C,U2*%
X85109000Y-55753000D02*
X95142000Y-55753000D01*
X95142000Y-55753000D02*
X95142000Y-81026000D01*
X95142000Y-81026000D02*
X85109000Y-81026000D01*
X85109000Y-81026000D02*
X85109000Y-55753000D01*
X89249905Y-58420000D02*
G75*
G03*
X89249905Y-58420000I-457905J0D01*
G01*
D12*
%TO.C,GP5*%
X92770000Y-41970000D02*
X91440000Y-41970000D01*
X92770000Y-34230000D02*
X90110000Y-34230000D01*
X92770000Y-40640000D02*
X92770000Y-41970000D01*
X90110000Y-39370000D02*
X90110000Y-34230000D01*
X92770000Y-39370000D02*
X92770000Y-34230000D01*
X92770000Y-39370000D02*
X90110000Y-39370000D01*
%TO.C,GP4*%
X92650000Y-39370000D02*
X92650000Y-34230000D01*
X95310000Y-39370000D02*
X92650000Y-39370000D01*
X95310000Y-34230000D02*
X92650000Y-34230000D01*
X95310000Y-39370000D02*
X95310000Y-34230000D01*
X95310000Y-40640000D02*
X95310000Y-41970000D01*
X95310000Y-41970000D02*
X93980000Y-41970000D01*
%TO.C,SPI1*%
X106366000Y-44390000D02*
X107696000Y-44390000D01*
X109026000Y-46990000D02*
X109026000Y-59750000D01*
X106366000Y-59750000D02*
X109026000Y-59750000D01*
X106366000Y-46990000D02*
X109026000Y-46990000D01*
X106366000Y-46990000D02*
X106366000Y-59750000D01*
X106366000Y-45720000D02*
X106366000Y-44390000D01*
%TO.C,GP3*%
X97850000Y-40625000D02*
X97850000Y-41955000D01*
X97850000Y-41955000D02*
X96520000Y-41955000D01*
X97850000Y-39355000D02*
X95190000Y-39355000D01*
X97850000Y-34215000D02*
X95190000Y-34215000D01*
X97850000Y-39355000D02*
X97850000Y-34215000D01*
X95190000Y-39355000D02*
X95190000Y-34215000D01*
%TO.C,GP2*%
X100390000Y-41970000D02*
X99060000Y-41970000D01*
X100390000Y-34230000D02*
X97730000Y-34230000D01*
X100390000Y-39370000D02*
X97730000Y-39370000D01*
X100390000Y-39370000D02*
X100390000Y-34230000D01*
X100390000Y-40640000D02*
X100390000Y-41970000D01*
X97730000Y-39370000D02*
X97730000Y-34230000D01*
%TO.C,I2C1*%
X106366000Y-63500000D02*
X106366000Y-62170000D01*
X109026000Y-64770000D02*
X109026000Y-72450000D01*
X106366000Y-64770000D02*
X109026000Y-64770000D01*
X106366000Y-62170000D02*
X107696000Y-62170000D01*
X106366000Y-72450000D02*
X109026000Y-72450000D01*
X106366000Y-64770000D02*
X106366000Y-72450000D01*
%TD*%
M02*
