%TF.GenerationSoftware,KiCad,Pcbnew,(6.0.0-0)*%
%TF.CreationDate,2022-07-23T10:22:29+09:00*%
%TF.ProjectId,drone_board,64726f6e-655f-4626-9f61-72642e6b6963,rev?*%
%TF.SameCoordinates,Original*%
%TF.FileFunction,Copper,L2,Bot*%
%TF.FilePolarity,Positive*%
%FSLAX46Y46*%
G04 Gerber Fmt 4.6, Leading zero omitted, Abs format (unit mm)*
G04 Created by KiCad (PCBNEW (6.0.0-0)) date 2022-07-23 10:22:29*
%MOMM*%
%LPD*%
G01*
G04 APERTURE LIST*
%TA.AperFunction,ComponentPad*%
%ADD10C,1.800000*%
%TD*%
%TA.AperFunction,ComponentPad*%
%ADD11O,1.800000X1.700000*%
%TD*%
%TA.AperFunction,ComponentPad*%
%ADD12R,1.800000X1.700000*%
%TD*%
%TA.AperFunction,ComponentPad*%
%ADD13R,1.050000X1.500000*%
%TD*%
%TA.AperFunction,ComponentPad*%
%ADD14O,1.050000X1.800000*%
%TD*%
%TA.AperFunction,ComponentPad*%
%ADD15R,1.800000X1.800000*%
%TD*%
%TA.AperFunction,ComponentPad*%
%ADD16O,4.000000X1.800000*%
%TD*%
%TA.AperFunction,ComponentPad*%
%ADD17R,4.000000X1.800000*%
%TD*%
%TA.AperFunction,ComponentPad*%
%ADD18R,1.800000X4.000000*%
%TD*%
%TA.AperFunction,ComponentPad*%
%ADD19O,1.600000X1.800000*%
%TD*%
%TA.AperFunction,ComponentPad*%
%ADD20R,1.700000X1.700000*%
%TD*%
%TA.AperFunction,ComponentPad*%
%ADD21O,1.700000X1.700000*%
%TD*%
%TA.AperFunction,ViaPad*%
%ADD22C,2.800000*%
%TD*%
%TA.AperFunction,ViaPad*%
%ADD23C,0.800000*%
%TD*%
%TA.AperFunction,Conductor*%
%ADD24C,1.000000*%
%TD*%
%TA.AperFunction,Conductor*%
%ADD25C,0.250000*%
%TD*%
G04 APERTURE END LIST*
D10*
%TO.P,GP6,1,Pin_1*%
%TO.N,Net-(GP6-Pad1)*%
X101600000Y-40640000D03*
D11*
%TO.P,GP6,2,Pin_2*%
%TO.N,+6V*%
X101600000Y-38100000D03*
D12*
%TO.P,GP6,3,Pin_3*%
%TO.N,GND*%
X101600000Y-35560000D03*
%TD*%
D13*
%TO.P,Q1,1,E*%
%TO.N,GND*%
X83312000Y-49530000D03*
D14*
%TO.P,Q1,2,C*%
%TO.N,Net-(Q1-Pad2)*%
X84582000Y-49530000D03*
%TO.P,Q1,3,B*%
%TO.N,Net-(Q1-Pad3)*%
X85852000Y-49530000D03*
%TD*%
D10*
%TO.P,U3,1,S.BUS*%
%TO.N,Net-(R2-Pad1)*%
X107696000Y-81280000D03*
%TO.P,U3,2,VCC*%
%TO.N,+6V*%
X107696000Y-78740000D03*
D15*
%TO.P,U3,3,GND*%
%TO.N,GND*%
X107696000Y-76200000D03*
%TD*%
D16*
%TO.P,U1,1,1*%
%TO.N,unconnected-(U1-Pad1)*%
X57912000Y-31750000D03*
%TO.P,U1,2,GPIO1*%
%TO.N,Net-(Q1-Pad2)*%
X57912000Y-34290000D03*
D17*
%TO.P,U1,3,GND*%
%TO.N,unconnected-(U1-Pad3)*%
X57912000Y-36830000D03*
D16*
%TO.P,U1,4,GPIO2/PWM1A*%
%TO.N,Net-(GP2-Pad1)*%
X57912000Y-39370000D03*
%TO.P,U1,5,GPIO3/PWM1B*%
%TO.N,Net-(GP3-Pad1)*%
X57912000Y-41910000D03*
%TO.P,U1,6,GPIO04/PWM2A*%
%TO.N,Net-(GP4-Pad1)*%
X57912000Y-44450000D03*
%TO.P,U1,7,GPIO5/PWM2B*%
%TO.N,Net-(GP5-Pad1)*%
X57912000Y-46990000D03*
D17*
%TO.P,U1,8,GND*%
%TO.N,unconnected-(U1-Pad8)*%
X57912000Y-49530000D03*
D16*
%TO.P,U1,9,GPIO6*%
%TO.N,Net-(GP6-Pad1)*%
X57912000Y-52070000D03*
%TO.P,U1,10,GPIO7*%
%TO.N,unconnected-(U1-Pad10)*%
X57912000Y-54610000D03*
%TO.P,U1,11,SPIRX/GPIO8*%
%TO.N,Net-(U2-Pad9)*%
X57912000Y-57150000D03*
%TO.P,U1,12,SPI1CSn/GPIO9*%
%TO.N,Net-(U1-Pad12)*%
X57912000Y-59690000D03*
D17*
%TO.P,U1,13,GND*%
%TO.N,unconnected-(U1-Pad13)*%
X57912000Y-62230000D03*
D16*
%TO.P,U1,14,SPI1TX/GPIO10*%
%TO.N,Net-(U1-Pad14)*%
X57912000Y-64770000D03*
%TO.P,U1,15,SPI1TX/GPIO11*%
%TO.N,Net-(U1-Pad15)*%
X57912000Y-67310000D03*
%TO.P,U1,16,16*%
%TO.N,unconnected-(U1-Pad16)*%
X57912000Y-69850000D03*
%TO.P,U1,17,SPI1CSn*%
%TO.N,Net-(U1-Pad17)*%
X57912000Y-72390000D03*
D17*
%TO.P,U1,18,GND*%
%TO.N,unconnected-(U1-Pad18)*%
X57912000Y-74930000D03*
D16*
%TO.P,U1,19,19*%
%TO.N,unconnected-(U1-Pad19)*%
X57912000Y-77470000D03*
%TO.P,U1,20,20*%
%TO.N,unconnected-(U1-Pad20)*%
X57912000Y-80010000D03*
%TO.P,U1,21,SPI0_RX*%
%TO.N,Net-(SPI1-Pad5)*%
X75692000Y-80010000D03*
%TO.P,U1,22,SPI0_CSn*%
%TO.N,Net-(SPI1-Pad4)*%
X75692000Y-77470000D03*
D17*
%TO.P,U1,23,GND*%
%TO.N,unconnected-(U1-Pad23)*%
X75692000Y-74930000D03*
D16*
%TO.P,U1,24,SPI0_SCK*%
%TO.N,Net-(SPI1-Pad3)*%
X75692000Y-72390000D03*
%TO.P,U1,25,SPI0_TX*%
%TO.N,Net-(SPI1-Pad2)*%
X75692000Y-69850000D03*
%TO.P,U1,26,26*%
%TO.N,unconnected-(U1-Pad26)*%
X75692000Y-67310000D03*
%TO.P,U1,27,27*%
%TO.N,unconnected-(U1-Pad27)*%
X75692000Y-64770000D03*
D17*
%TO.P,U1,28,GND*%
%TO.N,unconnected-(U1-Pad28)*%
X75692000Y-62230000D03*
D16*
%TO.P,U1,29,29*%
%TO.N,unconnected-(U1-Pad29)*%
X75692000Y-59690000D03*
%TO.P,U1,30,30*%
%TO.N,unconnected-(U1-Pad30)*%
X75692000Y-57150000D03*
%TO.P,U1,31,I2C1_SDA*%
%TO.N,Net-(I2C1-Pad3)*%
X75692000Y-54610000D03*
%TO.P,U1,32,I2C1_SCL*%
%TO.N,Net-(I2C1-Pad2)*%
X75692000Y-52070000D03*
D17*
%TO.P,U1,33,GND*%
%TO.N,GND*%
X75692000Y-49530000D03*
D16*
%TO.P,U1,34,34*%
%TO.N,unconnected-(U1-Pad34)*%
X75692000Y-46990000D03*
%TO.P,U1,35,35*%
%TO.N,unconnected-(U1-Pad35)*%
X75692000Y-44450000D03*
%TO.P,U1,36,3.3V*%
%TO.N,+3V3*%
X75692000Y-41910000D03*
%TO.P,U1,37,3.3EN*%
%TO.N,unconnected-(U1-Pad37)*%
X75692000Y-39370000D03*
D17*
%TO.P,U1,38,GND*%
%TO.N,unconnected-(U1-Pad38)*%
X75692000Y-36830000D03*
D16*
%TO.P,U1,39,VSYS*%
%TO.N,+6V*%
X75692000Y-34290000D03*
%TO.P,U1,40,VBUS*%
%TO.N,unconnected-(U1-Pad40)*%
X75692000Y-31750000D03*
D18*
%TO.P,U1,41*%
%TO.N,N/C*%
X66802000Y-79780000D03*
%TO.P,U1,42*%
X64262000Y-79780000D03*
%TO.P,U1,43*%
X69342000Y-79780000D03*
%TD*%
D10*
%TO.P,R1,1*%
%TO.N,+6V*%
X83312000Y-34290000D03*
D19*
%TO.P,R1,2*%
%TO.N,Net-(Q1-Pad2)*%
X83312000Y-44450000D03*
%TD*%
D10*
%TO.P,R2,1*%
%TO.N,Net-(R2-Pad1)*%
X99187000Y-49530000D03*
D19*
%TO.P,R2,2*%
%TO.N,Net-(Q1-Pad3)*%
X89027000Y-49530000D03*
%TD*%
D10*
%TO.P,U2,1,6v*%
%TO.N,+6V*%
X83712000Y-57150000D03*
%TO.P,U2,2,3v*%
%TO.N,unconnected-(U2-Pad2)*%
X83712000Y-59690000D03*
D15*
%TO.P,U2,3,GND*%
%TO.N,GND*%
X83712000Y-62230000D03*
D10*
%TO.P,U2,4,SCL*%
%TO.N,Net-(U1-Pad14)*%
X83712000Y-64770000D03*
%TO.P,U2,5,SDA*%
%TO.N,Net-(U1-Pad15)*%
X83712000Y-67310000D03*
%TO.P,U2,6,CSAG*%
%TO.N,Net-(U1-Pad17)*%
X83712000Y-69850000D03*
%TO.P,U2,7,CSM*%
%TO.N,Net-(U1-Pad12)*%
X83712000Y-72390000D03*
%TO.P,U2,8,SDO*%
%TO.N,Net-(U2-Pad9)*%
X83712000Y-74930000D03*
%TO.P,U2,9,DOM*%
X83712000Y-77470000D03*
%TO.P,U2,18*%
%TO.N,N/C*%
X96412000Y-62230000D03*
%TO.P,U2,19*%
X96412000Y-64770000D03*
%TO.P,U2,20*%
X96412000Y-67310000D03*
%TO.P,U2,21*%
X96412000Y-69850000D03*
%TO.P,U2,22*%
X96412000Y-72390000D03*
%TD*%
%TO.P,GP5,1,Pin_1*%
%TO.N,Net-(GP5-Pad1)*%
X91440000Y-40640000D03*
%TO.P,GP5,2,Pin_2*%
%TO.N,+6V*%
X91440000Y-38100000D03*
D15*
%TO.P,GP5,3,Pin_3*%
%TO.N,GND*%
X91440000Y-35560000D03*
%TD*%
D10*
%TO.P,GP4,1,Pin_1*%
%TO.N,Net-(GP4-Pad1)*%
X93980000Y-40640000D03*
%TO.P,GP4,2,Pin_2*%
%TO.N,+6V*%
X93980000Y-38100000D03*
D15*
%TO.P,GP4,3,Pin_3*%
%TO.N,GND*%
X93980000Y-35560000D03*
%TD*%
D20*
%TO.P,SPI1,1,Pin_1*%
%TO.N,GND*%
X107696000Y-45720000D03*
D21*
%TO.P,SPI1,2,Pin_2*%
%TO.N,Net-(SPI1-Pad2)*%
X107696000Y-48260000D03*
%TO.P,SPI1,3,Pin_3*%
%TO.N,Net-(SPI1-Pad3)*%
X107696000Y-50800000D03*
%TO.P,SPI1,4,Pin_4*%
%TO.N,Net-(SPI1-Pad4)*%
X107696000Y-53340000D03*
%TO.P,SPI1,5,Pin_5*%
%TO.N,Net-(SPI1-Pad5)*%
X107696000Y-55880000D03*
%TO.P,SPI1,6,Pin_6*%
%TO.N,+6V*%
X107696000Y-58420000D03*
%TD*%
D10*
%TO.P,GP3,1,Pin_1*%
%TO.N,Net-(GP3-Pad1)*%
X96520000Y-40625000D03*
%TO.P,GP3,2,Pin_2*%
%TO.N,+6V*%
X96520000Y-38085000D03*
D15*
%TO.P,GP3,3,Pin_3*%
%TO.N,GND*%
X96520000Y-35545000D03*
%TD*%
D10*
%TO.P,GP2,1,Pin_1*%
%TO.N,Net-(GP2-Pad1)*%
X99060000Y-40640000D03*
%TO.P,GP2,2,Pin_2*%
%TO.N,+6V*%
X99060000Y-38100000D03*
D12*
%TO.P,GP2,3,Pin_3*%
%TO.N,GND*%
X99060000Y-35560000D03*
%TD*%
D20*
%TO.P,I2C1,1,Pin_1*%
%TO.N,GND*%
X107696000Y-63500000D03*
D21*
%TO.P,I2C1,2,Pin_2*%
%TO.N,Net-(I2C1-Pad2)*%
X107696000Y-66040000D03*
%TO.P,I2C1,3,Pin_3*%
%TO.N,Net-(I2C1-Pad3)*%
X107696000Y-68580000D03*
%TO.P,I2C1,4,Pin_4*%
%TO.N,+6V*%
X107696000Y-71120000D03*
%TD*%
D22*
%TO.N,*%
X108000000Y-88000000D03*
X108000000Y-32000000D03*
X52000000Y-32000000D03*
X52000000Y-88000000D03*
D23*
%TO.N,+6V*%
X101854000Y-71120000D03*
X101854000Y-50292000D03*
X101854000Y-58420000D03*
%TO.N,Net-(U1-Pad12)*%
X64516000Y-73660000D03*
%TO.N,Net-(I2C1-Pad3)*%
X88138000Y-54610000D03*
X99441000Y-62230000D03*
%TO.N,Net-(I2C1-Pad2)*%
X99568000Y-59690000D03*
X88138000Y-52070000D03*
%TO.N,Net-(Q1-Pad2)*%
X79502000Y-35560000D03*
%TO.N,Net-(GP2-Pad1)*%
X87376000Y-39370000D03*
X87376000Y-45974000D03*
%TO.N,Net-(GP4-Pad1)*%
X93980000Y-44450000D03*
%TO.N,Net-(GP5-Pad1)*%
X79248000Y-45720000D03*
X80264000Y-40640000D03*
%TD*%
D24*
%TO.N,+6V*%
X101854000Y-71120000D02*
X101854000Y-76962000D01*
X101854000Y-50292000D02*
X101854000Y-58420000D01*
X103632000Y-78740000D02*
X107696000Y-78740000D01*
X101854000Y-58420000D02*
X101854000Y-71120000D01*
X101854000Y-76962000D02*
X103632000Y-78740000D01*
D25*
%TO.N,Net-(R2-Pad1)*%
X100838000Y-79502000D02*
X102616000Y-81280000D01*
X100838000Y-51181000D02*
X100838000Y-79502000D01*
X100838000Y-51181000D02*
X99187000Y-49530000D01*
X102616000Y-81280000D02*
X107696000Y-81280000D01*
%TO.N,Net-(U1-Pad12)*%
X62992000Y-59690000D02*
X57912000Y-59690000D01*
X64516000Y-73660000D02*
X64516000Y-61214000D01*
X64516000Y-61214000D02*
X62992000Y-59690000D01*
%TO.N,Net-(U2-Pad9)*%
X69387480Y-76245480D02*
X65532000Y-72390000D01*
X82396520Y-76245480D02*
X69387480Y-76245480D01*
X65532000Y-72390000D02*
X65532000Y-59436000D01*
X83712000Y-74930000D02*
X82396520Y-76245480D01*
X83712000Y-74930000D02*
X83712000Y-77470000D01*
X65532000Y-59436000D02*
X63246000Y-57150000D01*
X63246000Y-57150000D02*
X57912000Y-57150000D01*
D24*
%TO.N,GND*%
X107696000Y-39609000D02*
X107696000Y-45720000D01*
X103632000Y-35545000D02*
X103617000Y-35560000D01*
X82042000Y-62230000D02*
X83712000Y-62230000D01*
X86022489Y-44914511D02*
X86022489Y-37299511D01*
X82042000Y-62230000D02*
X80772000Y-60960000D01*
X105283000Y-76200000D02*
X107696000Y-76200000D01*
X103617000Y-35560000D02*
X87762000Y-35560000D01*
X106045000Y-45720000D02*
X104140000Y-47625000D01*
X107696000Y-39609000D02*
X103632000Y-35545000D01*
X80772000Y-55880000D02*
X83312000Y-53340000D01*
X104140000Y-75057000D02*
X105283000Y-76200000D01*
X83312000Y-49530000D02*
X75692000Y-49530000D01*
X107696000Y-63500000D02*
X106299000Y-63500000D01*
X83312000Y-47625000D02*
X86022489Y-44914511D01*
X104140000Y-61341000D02*
X104140000Y-75057000D01*
X104140000Y-47625000D02*
X104140000Y-61341000D01*
X83312000Y-49530000D02*
X83312000Y-47625000D01*
X106299000Y-63500000D02*
X104140000Y-61341000D01*
X83312000Y-53340000D02*
X83312000Y-49530000D01*
X86022489Y-37299511D02*
X87762000Y-35560000D01*
X107696000Y-45720000D02*
X106045000Y-45720000D01*
X80772000Y-60960000D02*
X80772000Y-55880000D01*
D25*
%TO.N,Net-(I2C1-Pad3)*%
X91821000Y-54610000D02*
X88138000Y-54610000D01*
X99441000Y-62230000D02*
X91821000Y-54610000D01*
%TO.N,Net-(I2C1-Pad2)*%
X91948000Y-52070000D02*
X88138000Y-52070000D01*
X99568000Y-59690000D02*
X91948000Y-52070000D01*
%TO.N,Net-(Q1-Pad2)*%
X80518000Y-35560000D02*
X83312000Y-38354000D01*
X79502000Y-35560000D02*
X80518000Y-35560000D01*
X83312000Y-38354000D02*
X83312000Y-44450000D01*
%TO.N,Net-(GP2-Pad1)*%
X87376000Y-45974000D02*
X87376000Y-39370000D01*
%TO.N,Net-(GP4-Pad1)*%
X93980000Y-40640000D02*
X93980000Y-44450000D01*
%TO.N,Net-(GP5-Pad1)*%
X80264000Y-40640000D02*
X80264000Y-44704000D01*
X80264000Y-44704000D02*
X79248000Y-45720000D01*
%TD*%
M02*
